<!DOCTYPE svg PUBLIC "-//W3C//DTD SVG 1.1//EN" "http://www.w3.org/Graphics/SVG/1.1/DTD/svg11.dtd">
<!-- Uploaded to: SVG Repo, www.svgrepo.com, Transformed by: SVG Repo Mixer Tools -->
<svg fill="#282828" height="800px" width="800px" version="1.1" id="Layer_1" xmlns="http://www.w3.org/2000/svg" xmlns:xlink="http://www.w3.org/1999/xlink" viewBox="-51.2 -51.2 614.40 614.40" xml:space="preserve" transform="rotate(0)" stroke="#282828" stroke-width="0.00512">
<g id="SVGRepo_bgCarrier" stroke-width="0"/>
<g id="SVGRepo_tracerCarrier" stroke-linecap="round" stroke-linejoin="round" stroke="#CCCCCC" stroke-width="2.048"/>
<g id="SVGRepo_iconCarrier"> <g> <g> <path d="M490.552,341.631v-71.385L316.893,160.567l5.394-93.841v-0.439C322.286,29.736,292.55,0,256,0 s-66.286,29.736-66.286,66.287v0.439l5.394,93.841L21.448,270.245v71.385l180.434-63.153l5.275,91.777l-48.038,57.848V512 L256,451.452L352.88,512v-83.897l-48.038-57.848l5.275-91.777L490.552,341.631z M279.154,391.586l40.336,48.572v11.596h0 l-45.792-28.62L256,412.074l-17.697,11.06l-45.792,28.62V440.16l40.336-48.572l8.402-10.118l-0.755-13.131l-5.275-91.777 l-2.543-44.24l-41.825,14.639L54.84,294.566v-5.917l158.099-99.851l16.634-10.506l-1.129-19.642l-5.335-92.826 c0.248-17.927,14.907-32.433,32.89-32.433s32.642,14.506,32.892,32.433l-5.335,92.826l-1.129,19.642l16.634,10.506l158.099,99.851 v5.917L321.149,246.96l-41.825-14.639l-2.543,44.24l-5.275,91.777l-0.755,13.131L279.154,391.586z"/> </g> </g> </g>
</svg>